<svg width="48" height="22" viewBox="0 0 48 22" fill="none" xmlns="http://www.w3.org/2000/svg">
<path d="M2.31863 19.9724C2.41767 19.9724 2.50151 19.891 2.51575 19.7763L3.05414 15.509L2.51735 11.1446C2.50135 11.0298 2.41767 10.9478 2.31863 10.9478C2.21704 10.9478 2.13048 11.0316 2.11704 11.1446L1.64648 15.509L2.11704 19.7748C2.13048 19.8894 2.21704 19.9724 2.31863 19.9724Z" fill="#0B0BFF"/>
<path d="M0.543512 18.3494C0.64079 18.3494 0.719669 18.2738 0.733909 18.1606L1.15118 15.5088L0.733909 12.8074C0.719509 12.6978 0.64079 12.6187 0.543512 12.6187C0.441913 12.6187 0.363194 12.6978 0.348795 12.809L0 15.509L0.348795 18.16C0.363194 18.2722 0.441913 18.3494 0.543512 18.3494Z" fill="#0B0BFF"/>
<path d="M4.44197 10.3323C4.42917 10.1936 4.32757 10.0923 4.20149 10.0923C4.07638 10.0923 3.97462 10.1936 3.96294 10.3323L3.51318 15.509L3.96294 20.4968C3.97462 20.6347 4.07638 20.7347 4.20149 20.7347C4.32757 20.7347 4.42917 20.6347 4.44197 20.4968L4.95076 15.509L4.44197 10.3323Z" fill="#0B0BFF"/>
<path d="M6.10435 20.9353C6.25186 20.9353 6.37122 20.8138 6.38562 20.6551L6.86642 15.5102L6.38562 10.189C6.37122 10.0292 6.25186 9.90918 6.10435 9.90918C5.95475 9.90918 5.83363 10.0293 5.82339 10.1898L5.39844 15.5102L5.82339 20.6551C5.83363 20.814 5.95475 20.9353 6.10435 20.9353Z" fill="#0B0BFF"/>
<path d="M8.02073 21.0198C8.19257 21.0198 8.33048 20.8822 8.34472 20.6981L8.34312 20.6993L8.79592 15.5113L8.34312 10.5742C8.33032 10.3931 8.19257 10.2534 8.02057 10.2534C7.84617 10.2534 7.70905 10.3931 7.69865 10.5757L7.29834 15.5114L7.69865 20.6982C7.70921 20.8822 7.84633 21.0198 8.02073 21.0198Z" fill="#0B0BFF"/>
<path d="M10.7417 15.5123L10.3169 7.48489C10.305 7.28138 10.1465 7.11914 9.95192 7.11914C9.7588 7.11914 9.60072 7.28122 9.58888 7.48489L9.21289 15.5123L9.58888 20.6991C9.60072 20.9036 9.75896 21.0636 9.95192 21.0636C10.1466 21.0636 10.305 20.9036 10.3169 20.6991V20.7005L10.7417 15.5123Z" fill="#0B0BFF"/>
<path d="M11.9023 21.0721C12.1165 21.0721 12.2943 20.8943 12.3044 20.6674V20.6708L12.7015 15.5136L12.3044 5.64878C12.2943 5.4219 12.1165 5.24414 11.9023 5.24414C11.6831 5.24414 11.5069 5.4219 11.4951 5.64878L11.1455 15.5136L11.4967 20.669C11.5069 20.8943 11.6831 21.0721 11.9023 21.0721Z" fill="#0B0BFF"/>
<path d="M13.862 4.37842C13.6207 4.37842 13.426 4.5765 13.4161 4.82625L13.0908 15.5142L13.4161 20.6156C13.4262 20.8641 13.6207 21.0609 13.862 21.0609C14.1026 21.0609 14.2988 20.8657 14.3073 20.6148V20.6174L14.6764 15.5142L14.3073 4.82625C14.2988 4.5749 14.1025 4.37842 13.862 4.37842Z" fill="#0B0BFF"/>
<path d="M15.8413 21.0717C16.1063 21.0717 16.3173 20.8579 16.3272 20.5828V20.5858L16.6685 15.515L16.3272 4.46796C16.3171 4.19372 16.1063 3.979 15.8413 3.979C15.5748 3.979 15.3605 4.19372 15.3564 4.46796L15.0498 15.515L15.3564 20.5858C15.3605 20.8579 15.5748 21.0717 15.8413 21.0717Z" fill="#0B0BFF"/>
<path d="M17.8367 21.0668C18.1226 21.0668 18.3546 20.8328 18.3632 20.536V20.5406L18.6773 15.516L18.3632 4.74997C18.3546 4.45333 18.1226 4.22021 17.8367 4.22021C17.5487 4.22021 17.3167 4.45317 17.3082 4.74997L17.0322 15.516L17.31 20.5382C17.3167 20.8328 17.5487 21.0668 17.8367 21.0668Z" fill="#0B0BFF"/>
<path d="M20.6973 15.5153L20.413 5.14166C20.4061 4.82167 20.1555 4.57031 19.8448 4.57031C19.5333 4.57031 19.2826 4.82167 19.276 5.14374L19.021 15.5153L19.276 20.5069C19.2826 20.8243 19.5331 21.0758 19.8448 21.0758C20.1554 21.0758 20.4061 20.8243 20.413 20.5022V20.5069L20.6973 15.5153Z" fill="#0B0BFF"/>
<path d="M21.8687 21.0862C22.1989 21.0862 22.4723 20.8115 22.4774 20.4737V20.4765L22.7355 15.5191L22.4774 3.17479C22.4725 2.83576 22.199 2.56152 21.8687 2.56152C21.5386 2.56152 21.2659 2.83704 21.2592 3.17655L21.0298 15.5141L21.2592 20.4766C21.2659 20.8115 21.5386 21.0862 21.8687 21.0862Z" fill="#0B0BFF"/>
<path d="M23.8853 1.40137C23.5287 1.40137 23.2394 1.6972 23.2335 2.05784L22.9668 15.5218L23.2351 20.4059C23.2394 20.7619 23.5289 21.0567 23.8853 21.0567C24.2365 21.0567 24.5313 20.7617 24.5329 20.4V20.4059L24.824 15.5218L24.5329 2.05784C24.5313 1.69592 24.2365 1.40137 23.8853 1.40137Z" fill="#0B0BFF"/>
<path d="M25.7318 21.0909C25.7462 21.0922 41.9912 21.0998 42.0956 21.0998C45.3571 21.0998 48.0001 18.4244 48.0001 15.1228C48.0001 11.823 45.357 9.14706 42.0956 9.14706C41.2861 9.14706 40.5149 9.3125 39.8116 9.61218C39.3441 4.2249 34.8813 0 29.437 0C28.1062 0 26.8084 0.265916 25.6622 0.715029C25.2161 0.889427 25.0968 1.06926 25.0933 1.41774V20.3837C25.0984 20.7501 25.3777 21.0546 25.7318 21.0909Z" fill="#0B0BFF"/>
</svg>
