<svg width="36" height="40" viewBox="0 0 36 40" fill="none" xmlns="http://www.w3.org/2000/svg">
<path d="M30.2308 8.01788C28.0762 6.61302 26.521 4.36524 26.0359 1.74493C25.9311 1.17879 25.8735 0.596143 25.8735 0H18.9967L18.9857 27.5599C18.8701 30.6461 16.33 33.1232 13.2161 33.1232C12.2483 33.1232 11.337 32.8812 10.5346 32.459C8.69461 31.4907 7.43542 29.562 7.43542 27.3426C7.43542 24.155 10.0287 21.5617 13.2161 21.5617C13.8111 21.5617 14.3818 21.6598 14.9217 21.829V14.8085C14.363 14.7324 13.7953 14.6848 13.2161 14.6848C6.23659 14.6848 0.558594 20.3631 0.558594 27.3426C0.558594 31.6248 2.6981 35.4144 5.96216 37.7059C8.01813 39.1493 10.519 40 13.2161 40C20.1955 40 25.8735 34.3221 25.8735 27.3426V13.3673C28.5707 15.3032 31.8752 16.444 35.4409 16.444V9.56719C33.5202 9.56719 31.7312 8.99616 30.2308 8.01788Z" fill="#0B0BFF"/>
</svg>
