<svg width="22" height="16" viewBox="0 0 22 16" fill="none" xmlns="http://www.w3.org/2000/svg">
<path d="M2.51453 0.518311H18.7947C20.3305 0.518311 21.1046 1.24324 21.1046 2.71767V13.0632C21.1046 14.5254 20.3305 15.2626 18.7947 15.2626H2.51453C0.978664 15.2626 0.20459 14.5254 0.20459 13.0632V2.71767C0.20459 1.24324 0.978664 0.518311 2.51453 0.518311ZM10.6485 11.085L18.9298 4.29039C19.2247 4.04465 19.4582 3.47945 19.0896 2.97569C18.7332 2.47193 18.082 2.45964 17.652 2.76681L10.6485 7.50956L3.65721 2.76681C3.22717 2.45964 2.57596 2.47193 2.21964 2.97569C1.85103 3.47945 2.08449 4.04465 2.37937 4.29039L10.6485 11.085Z" fill="#0D0CFF"/>
</svg>
