<svg width="56" height="65" viewBox="0 0 56 65" fill="none" xmlns="http://www.w3.org/2000/svg">
<g clip-path="url(#clip0_143_13632)">
<path d="M52.1789 26.8025V23.3231V19.8768V19.8437V16.3998H48.6995V12.9204V9.44102V6.95642V5.964V3.47939V0H45.2225V3.47939V5.964V6.95642V9.44102H41.7431V12.9204V16.3998H38.2637V19.8768V23.3562V26.8356V30.3126V33.792H41.7431V30.3126H45.2225V26.8356V23.3562H48.6995V26.8025V30.2795V33.7589V37.2383V40.7153V44.1947V47.6741H52.1789V44.1947H55.6583V40.7153V37.2383V33.7589V30.2795V26.8025H52.1789Z" fill="white"/>
<path d="M45.2226 37.2384H41.7433V40.7154H45.2226V40.7486H41.7433V40.7154H38.2639V44.1285H34.7868V47.6079H31.3074H27.828V44.1617H31.3074V40.6823H34.7868V37.2384H38.2639V33.7922V33.759V30.3128V26.8357V23.3563V19.877H34.7868V23.3563H31.3074V26.8357H27.828V30.2464H24.351V33.7258H20.8716H17.3922V37.2052H13.9152H10.4358V40.6823H6.95642H3.47939H0V44.1617H3.47939V47.641H6.95642V51.1181H10.4358H13.9152H17.3922H20.8716V47.641H24.351H27.828V51.0849H24.351V54.5643H20.8716H17.3922H13.9152H10.4358V58.0437H13.9152V61.5207H17.3922H20.8716V65.0001H24.351H27.828H31.3074V61.5207H34.7868H38.2639V58.0437H41.7433V54.5643H45.2226V51.1181H48.6997V47.6742V47.641V44.1948V40.7817V40.7154V37.3047H45.2226V37.2384H48.6997V33.759H45.2226V37.2384Z" fill="white"/>
</g>
<defs>
<clipPath id="clip0_143_13632">
<rect width="55.6585" height="65" fill="white"/>
</clipPath>
</defs>
</svg>
