<svg width="1180" height="1416" viewBox="0 0 1180 1416" fill="none" xmlns="http://www.w3.org/2000/svg">
<rect width="236" height="236" transform="matrix(-1 0 0 1 472 472)" fill="#D9D9D9"/>
<rect width="236" height="236" transform="matrix(-1 0 0 1 472 944)" fill="#D9D9D9"/>
<rect width="236" height="236" transform="matrix(-1 0 0 1 472 236)" fill="white"/>
<rect width="236" height="236" transform="matrix(-1 0 0 1 472 0)" fill="#D9D9D9"/>
<rect width="236" height="236" transform="matrix(-1 0 0 1 472 708)" fill="white"/>
<rect width="236" height="236" transform="matrix(-1 0 0 1 944 236)" fill="white"/>
<rect width="236" height="236" transform="matrix(-1 0 0 1 944 0)" fill="#D9D9D9"/>
<rect width="236" height="236" transform="matrix(-1 0 0 1 944 1180)" fill="white"/>
<rect width="236" height="236" transform="matrix(-1 0 0 1 944 708)" fill="white"/>
<rect width="236" height="236" transform="matrix(-1 0 0 1 944 472)" fill="#D9D9D9"/>
<rect width="236" height="236" transform="matrix(-1 0 0 1 944 944)" fill="#D9D9D9"/>
<rect width="236" height="236" transform="matrix(-1 0 0 1 708 236)" fill="#D9D9D9"/>
<rect width="236" height="236" transform="matrix(-1 0 0 1 708 0)" fill="white"/>
<rect width="236" height="236" transform="matrix(-1 0 0 1 236 0)" fill="white"/>
<rect width="236" height="236" transform="matrix(-1 0 0 1 708 1180)" fill="#D9D9D9"/>
<rect width="236" height="236" transform="matrix(-1 0 0 1 708 708)" fill="#D9D9D9"/>
<rect width="236" height="236" transform="matrix(-1 0 0 1 708 472)" fill="white"/>
<rect width="236" height="236" transform="matrix(-1 0 0 1 708 944)" fill="white"/>
<rect width="236" height="236" transform="matrix(-1 0 0 1 1180 236)" fill="#D9D9D9"/>
<rect width="236" height="236" transform="matrix(-1 0 0 1 1180 0)" fill="white"/>
<rect width="236" height="236" transform="matrix(-1 0 0 1 1180 1180)" fill="#D9D9D9"/>
<rect width="236" height="236" transform="matrix(-1 0 0 1 1180 708)" fill="#D9D9D9"/>
<rect width="236" height="236" transform="matrix(-1 0 0 1 1180 472)" fill="white"/>
<rect width="236" height="236" transform="matrix(-1 0 0 1 1180 944)" fill="white"/>
</svg>
