<svg width="499" height="569" viewBox="0 0 499 569" fill="none" xmlns="http://www.w3.org/2000/svg">
<g clip-path="url(#clip0_142_13541)">
<path d="M131.421 328.841H-94.6058V364.199H-130V590.314H-94.6058V625.696H131.421V590.314H166.815V364.199H131.421V328.841H166.815V293.459H131.421V328.841Z" fill="#D9D9D9"/>
<path d="M305.838 214.771V181.919V146.537H343.593V108.65H459.51V70.7394H375.325V35.3818H219.894V0H184.5H149.13V35.3818H90.1475V70.7394H235.049V146.537H199.679V258.077H166.815V293.459H202.209V258.077H235.049V181.919H270.443V217.3H305.838V405.794H341.208V214.771H305.838Z" fill="#D9D9D9"/>
<path d="M463.63 476.534V441.152H376.602V405.794H341.208V441.152H237.579V476.534H202.209V702.409H237.579V737.791H463.63V702.409H499V476.534H463.63Z" fill="#D9D9D9"/>
</g>
<defs>
<clipPath id="clip0_142_13541">
<rect width="629" height="569" fill="white" transform="translate(-130)"/>
</clipPath>
</defs>
</svg>
