<svg width="146" height="173" viewBox="0 0 146 173" fill="none" xmlns="http://www.w3.org/2000/svg">
<g clip-path="url(#clip0_143_13558)">
<path d="M60.6795 77.2252H8.2155V85.4326H0V137.92H8.2155V146.133H60.6795V137.92H68.895V85.4326H60.6795V77.2252H68.895V69.0122H60.6795V77.2252Z" fill="#070707"/>
<path d="M101.164 50.7469V43.1209V34.9079H109.928V26.1135H136.834V17.3135H117.293V9.10606H81.2157V0.893066H73.0002H64.7903V9.10606H51.0996V17.3135H84.7334V34.9079H76.5235V60.7993H68.8952V69.0122H77.1107V60.7993H84.7334V43.1209H92.9489V51.3339H101.164V95.0881H109.374V50.7469H101.164Z" fill="#070707"/>
<path d="M137.79 111.508V103.295H117.589V95.088H109.374V103.295H85.3203V111.508H77.1104V163.94H85.3203V172.153H137.79V163.94H146V111.508H137.79Z" fill="#070707"/>
</g>
<defs>
<clipPath id="clip0_143_13558">
<rect width="146" height="171.126" fill="white" transform="translate(0 0.893066)"/>
</clipPath>
</defs>
</svg>
