<svg width="26" height="26" viewBox="0 0 26 26" fill="none" xmlns="http://www.w3.org/2000/svg">
<g id="dashicons:email">
<path id="Vector" d="M5.51453 5.51831H21.7947C23.3305 5.51831 24.1046 6.24324 24.1046 7.71767V18.0632C24.1046 19.5254 23.3305 20.2626 21.7947 20.2626H5.51453C3.97866 20.2626 3.20459 19.5254 3.20459 18.0632V7.71767C3.20459 6.24324 3.97866 5.51831 5.51453 5.51831ZM13.6485 16.085L21.9298 9.29039C22.2247 9.04465 22.4582 8.47945 22.0896 7.97569C21.7332 7.47193 21.082 7.45964 20.652 7.76681L13.6485 12.5096L6.65721 7.76681C6.22717 7.45964 5.57596 7.47193 5.21964 7.97569C4.85103 8.47945 5.08449 9.04465 5.37937 9.29039L13.6485 16.085Z" fill="#0D0CFF"/>
</g>
</svg>
