<svg width="118" height="147" viewBox="0 0 118 147" fill="none" xmlns="http://www.w3.org/2000/svg">
<g clip-path="url(#clip0_143_13594)">
<path d="M8.43062 25.2902H0V33.7221H8.43062V25.2902Z" fill="#070707"/>
<path d="M16.8613 16.8583H8.43066V25.2903H16.8613V16.8583Z" fill="#070707"/>
<path d="M16.8613 42.1484H8.43066V50.5804H16.8613V42.1484Z" fill="#070707"/>
<path d="M8.43062 33.7222H0V42.1541H8.43062V33.7222Z" fill="#070707"/>
<path d="M84.289 25.2903V16.8583H69.4135H67.4278H33.7168V25.2903H25.2861V33.7222V42.1485H33.7168V50.5805H67.4278H69.4135H84.289V42.1485H92.7139V33.7222V25.2903H84.289Z" fill="#070707"/>
<path d="M25.2861 8.43201H16.8555V16.864H25.2861V8.43201Z" fill="#070707"/>
<path d="M33.7168 8.43201H25.2861V16.864H33.7168V8.43201Z" fill="#070707"/>
<path d="M25.2861 50.5804H16.8555V59.0124H25.2861V50.5804Z" fill="#070707"/>
<path d="M33.7168 50.5804H25.2861V59.0124H33.7168V50.5804Z" fill="#070707"/>
<path d="M42.1474 0H33.7168V8.43198H42.1474V0Z" fill="#070707"/>
<path d="M50.5722 0H42.1416V8.43198H50.5722V0Z" fill="#070707"/>
<path d="M42.1474 59.0123H33.7168V67.4443H42.1474V59.0123Z" fill="#070707"/>
<path d="M50.5722 59.0123H42.1416V67.4443H50.5722V59.0123Z" fill="#070707"/>
<path d="M118.006 33.7222H109.575V42.1541H118.006V33.7222Z" fill="#070707"/>
<path d="M109.575 42.1484H101.145V50.5804H109.575V42.1484Z" fill="#070707"/>
<path d="M109.575 16.8583H101.145V25.2903H109.575V16.8583Z" fill="#070707"/>
<path d="M118.006 25.2902H109.575V33.7221H118.006V25.2902Z" fill="#070707"/>
<path d="M101.144 50.5804H92.7139V59.0124H101.144V50.5804Z" fill="#070707"/>
<path d="M92.7197 50.5804H84.2891V59.0124H92.7197V50.5804Z" fill="#070707"/>
<path d="M101.144 8.43201H92.7139V16.864H101.144V8.43201Z" fill="#070707"/>
<path d="M92.7197 8.43201H84.2891V16.864H92.7197V8.43201Z" fill="#070707"/>
<path d="M84.289 59.0123H75.8584V67.4443H84.289V59.0123Z" fill="#070707"/>
<path d="M67.4336 59.0123H59.0029V67.4443H67.4336V59.0123Z" fill="#070707"/>
<path d="M84.289 0H75.8584V8.43198H84.289V0Z" fill="#070707"/>
<path d="M75.8584 59.0123H67.4277V67.4443H75.8584V59.0123Z" fill="#070707"/>
<path d="M75.8584 0H67.4277V8.43198H75.8584V0Z" fill="#070707"/>
<path d="M67.4336 0H59.0029V8.43198H67.4336V0Z" fill="#070707"/>
<path d="M59.0029 59.0123H50.5723V67.4443H59.0029V59.0123Z" fill="#070707"/>
<path d="M109.575 93.1306H101.145H92.7139V101.563H84.2891V109.995H75.8584V116.182V118.421V126.853H67.4278V118.421V109.995V101.563V93.1306V67.4386H59.0029H50.5723V93.1306V101.563V109.995V118.323H42.3598V109.891V105.776V101.465H33.9291V93.033H25.4985V84.601H17.0736H8.64302H0.212402V93.033H8.64302V101.465V109.891H17.0736H25.4985V118.323H33.9291V126.755H42.3598H50.5723V126.853V135.285V147H59.0029H67.4278V135.285H75.8584H84.2891V126.853H92.7139V118.421H101.145H109.575V109.995V101.563H118V93.1306H109.575Z" fill="#070707"/>
<path d="M59.0029 0H50.5723V8.43198H59.0029V0Z" fill="#070707"/>
<path d="M42.1416 25.2902V33.7221V42.1484H75.8583V33.7221V25.2902H42.1416Z" fill="white"/>
</g>
<defs>
<clipPath id="clip0_143_13594">
<rect width="118" height="147" fill="white"/>
</clipPath>
</defs>
</svg>
