<svg width="23" height="25" viewBox="0 0 23 25" fill="none" xmlns="http://www.w3.org/2000/svg">
<g clip-path="url(#clip0_88_13870)">
<path d="M11.2183 6.87933C8.11732 6.87933 5.61606 9.34151 5.61606 12.394C5.61606 15.4466 8.11732 17.9087 11.2183 17.9087C14.3193 17.9087 16.8205 15.4466 16.8205 12.394C16.8205 9.34151 14.3193 6.87933 11.2183 6.87933ZM11.2183 15.9793C9.21437 15.9793 7.57611 14.3715 7.57611 12.394C7.57611 10.4166 9.20949 8.80876 11.2183 8.80876C13.2271 8.80876 14.8605 10.4166 14.8605 12.394C14.8605 14.3715 13.2222 15.9793 11.2183 15.9793ZM18.3564 6.65375C18.3564 7.36889 17.7713 7.94004 17.0497 7.94004C16.3232 7.94004 15.743 7.36409 15.743 6.65375C15.743 5.94342 16.3281 5.36747 17.0497 5.36747C17.7713 5.36747 18.3564 5.94342 18.3564 6.65375ZM22.0668 7.95924C21.984 6.23619 21.5841 4.70993 20.3018 3.45244C19.0244 2.19495 17.4739 1.80139 15.7235 1.715C13.9195 1.61421 8.51226 1.61421 6.70823 1.715C4.96271 1.79659 3.41222 2.19015 2.1299 3.44764C0.847578 4.70513 0.452643 6.23139 0.364879 7.95444C0.262488 9.73028 0.262488 15.053 0.364879 16.8288C0.447767 18.5519 0.847578 20.0781 2.1299 21.3356C3.41222 22.5931 4.95784 22.9867 6.70823 23.0731C8.51226 23.1739 13.9195 23.1739 15.7235 23.0731C17.4739 22.9915 19.0244 22.5979 20.3018 21.3356C21.5793 20.0781 21.9791 18.5519 22.0668 16.8288C22.1692 15.053 22.1692 9.73508 22.0668 7.95924ZM19.7362 18.7343C19.3559 19.675 18.6197 20.3997 17.6592 20.7789C16.2208 21.3404 12.8078 21.2108 11.2183 21.2108C9.62881 21.2108 6.2109 21.3356 4.77743 20.7789C3.82179 20.4045 3.08555 19.6798 2.70036 18.7343C2.1299 17.3184 2.26155 13.9587 2.26155 12.394C2.26155 10.8294 2.13478 7.46488 2.70036 6.05381C3.08067 5.11309 3.81691 4.38836 4.77743 4.00919C6.21578 3.44764 9.62881 3.57723 11.2183 3.57723C12.8078 3.57723 16.2257 3.45244 17.6592 4.00919C18.6148 4.38356 19.3511 5.10829 19.7362 6.05381C20.3067 7.46968 20.1751 10.8294 20.1751 12.394C20.1751 13.9587 20.3067 17.3232 19.7362 18.7343Z" fill="#0D0CFF"/>
</g>
<defs>
<clipPath id="clip0_88_13870">
<rect width="21.8434" height="24.5738" fill="white" transform="translate(0.291016 0.111816)"/>
</clipPath>
</defs>
</svg>
