<svg width="25" height="24" viewBox="0 0 25 24" fill="none" xmlns="http://www.w3.org/2000/svg">
<g clip-path="url(#clip0_88_13872)">
<path d="M5.75656 23.9178V8.37417H0.488084V23.9178H5.75656ZM3.123 6.25067C4.96021 6.25067 6.10378 5.0571 6.10378 3.56553C6.06955 2.04033 4.96028 0.879883 3.15786 0.879883C1.35573 0.879883 0.177246 2.04035 0.177246 3.56553C0.177246 5.05717 1.32054 6.25067 3.08861 6.25067H3.12284H3.123ZM8.67264 23.9178H13.9411V15.2375C13.9411 14.7729 13.9753 14.3089 14.1145 13.9768C14.4953 13.0486 15.3622 12.0873 16.8176 12.0873C18.724 12.0873 19.4867 13.5127 19.4867 15.6022V23.9177H24.7549V15.0051C24.7549 10.2307 22.1557 8.00925 18.6893 8.00925C15.8472 8.00925 14.5993 9.56712 13.9061 10.6282H13.9412V8.37385H8.67276C8.7419 9.83238 8.67276 23.9175 8.67276 23.9175L8.67264 23.9178Z" fill="#0D0CFF"/>
</g>
<defs>
<clipPath id="clip0_88_13872">
<rect width="24.5738" height="23.0379" fill="white" transform="translate(0.177246 0.879883)"/>
</clipPath>
</defs>
</svg>
