<svg width="16" height="20" viewBox="0 0 16 20" fill="none" xmlns="http://www.w3.org/2000/svg">
<g clip-path="url(#clip0_88_13884)">
<path d="M7.14494 19.5045C5.19632 17.0651 0.862305 11.1529 0.862305 7.83197C0.862305 3.80281 4.07119 0.536621 8.02966 0.536621C11.9866 0.536621 15.197 3.80281 15.197 7.83197C15.197 11.1529 10.8294 17.0651 8.91438 19.5045C8.45523 20.0859 7.6041 20.0859 7.14494 19.5045ZM8.02966 10.2638C9.34741 10.2638 10.4188 9.17325 10.4188 7.83197C10.4188 6.49069 9.34741 5.40019 8.02966 5.40019C6.71192 5.40019 5.64054 6.49069 5.64054 7.83197C5.64054 9.17325 6.71192 10.2638 8.02966 10.2638Z" fill="#0D0CFF"/>
</g>
<defs>
<clipPath id="clip0_88_13884">
<rect width="14.3347" height="19.4543" fill="white" transform="translate(0.862305 0.536621)"/>
</clipPath>
</defs>
</svg>
