<svg width="25" height="19" viewBox="0 0 25 19" fill="none" xmlns="http://www.w3.org/2000/svg">
<g clip-path="url(#clip0_88_13874)">
<path fill-rule="evenodd" clip-rule="evenodd" d="M21.7787 0.945919C22.8195 1.23269 23.6427 2.0771 23.9223 3.14453C24.435 5.08823 24.4505 9.11902 24.4505 9.11902C24.4505 9.11902 24.4505 13.1657 23.9379 15.0935C23.6583 16.161 22.835 17.0054 21.7942 17.2921C19.9147 17.8179 12.3498 17.8179 12.3498 17.8179C12.3498 17.8179 4.78486 17.8179 2.90528 17.2921C1.86453 17.0054 1.04124 16.161 0.761635 15.0935C0.249023 13.1498 0.249023 9.11902 0.249023 9.11902C0.249023 9.11902 0.249023 5.08823 0.746101 3.16047C1.02571 2.09302 1.84899 1.24863 2.88975 0.961857C4.76932 0.436094 12.3342 0.420166 12.3342 0.420166C12.3342 0.420166 19.8991 0.420166 21.7787 0.945919ZM16.2021 9.11903L9.9265 12.8471V5.39095L16.2021 9.11903Z" fill="#0D0CFF"/>
</g>
<defs>
<clipPath id="clip0_88_13874">
<rect width="24.5738" height="17.8719" fill="white" transform="translate(0.0634766 0.183594)"/>
</clipPath>
</defs>
</svg>
